<svg width="21" height="21" viewBox="0 0 21 21" fill="none" xmlns="http://www.w3.org/2000/svg">
<path d="M10.5 5.8125C9.5729 5.8125 8.66662 6.08742 7.89576 6.60249C7.12491 7.11756 6.5241 7.84964 6.16931 8.70617C5.81453 9.5627 5.7217 10.5052 5.90257 11.4145C6.08344 12.3238 6.52988 13.159 7.18544 13.8146C7.841 14.4701 8.67623 14.9166 9.58551 15.0974C10.4948 15.2783 11.4373 15.1855 12.2938 14.8307C13.1504 14.4759 13.8824 13.8751 14.3975 13.1042C14.9126 12.3334 15.1875 11.4271 15.1875 10.5C15.1862 9.25719 14.6919 8.06566 13.8131 7.18686C12.9343 6.30807 11.7428 5.81379 10.5 5.8125ZM10.5 13.625C9.88193 13.625 9.27775 13.4417 8.76384 13.0983C8.24994 12.755 7.8494 12.2669 7.61288 11.6959C7.37635 11.1249 7.31447 10.4965 7.43505 9.89034C7.55562 9.28415 7.85325 8.72733 8.29029 8.29029C8.72733 7.85325 9.28415 7.55562 9.89034 7.43505C10.4965 7.31447 11.1249 7.37635 11.6959 7.61288C12.2669 7.8494 12.755 8.24994 13.0983 8.76384C13.4417 9.27775 13.625 9.88193 13.625 10.5C13.625 11.3288 13.2958 12.1237 12.7097 12.7097C12.1237 13.2958 11.3288 13.625 10.5 13.625ZM15.1875 0.34375H5.8125C4.36257 0.345301 2.97248 0.921969 1.94722 1.94722C0.921969 2.97248 0.345301 4.36257 0.34375 5.8125V15.1875C0.345301 16.6374 0.921969 18.0275 1.94722 19.0528C2.97248 20.078 4.36257 20.6547 5.8125 20.6562H15.1875C16.6374 20.6547 18.0275 20.078 19.0528 19.0528C20.078 18.0275 20.6547 16.6374 20.6562 15.1875V5.8125C20.6547 4.36257 20.078 2.97248 19.0528 1.94722C18.0275 0.921969 16.6374 0.345301 15.1875 0.34375ZM19.0938 15.1875C19.0938 16.2235 18.6822 17.2171 17.9496 17.9496C17.2171 18.6822 16.2235 19.0938 15.1875 19.0938H5.8125C4.7765 19.0938 3.78293 18.6822 3.05036 17.9496C2.3178 17.2171 1.90625 16.2235 1.90625 15.1875V5.8125C1.90625 4.7765 2.3178 3.78293 3.05036 3.05036C3.78293 2.3178 4.7765 1.90625 5.8125 1.90625H15.1875C16.2235 1.90625 17.2171 2.3178 17.9496 3.05036C18.6822 3.78293 19.0938 4.7765 19.0938 5.8125V15.1875ZM16.75 5.42188C16.75 5.65365 16.6813 5.88022 16.5525 6.07293C16.4237 6.26565 16.2407 6.41585 16.0266 6.50455C15.8124 6.59324 15.5768 6.61645 15.3495 6.57123C15.1222 6.52602 14.9134 6.41441 14.7495 6.25052C14.5856 6.08663 14.474 5.87782 14.4288 5.6505C14.3835 5.42318 14.4068 5.18755 14.4955 4.97342C14.5842 4.75929 14.7344 4.57626 14.9271 4.4475C15.1198 4.31873 15.3463 4.25 15.5781 4.25C15.8889 4.25 16.187 4.37347 16.4068 4.59323C16.6265 4.813 16.75 5.11107 16.75 5.42188Z" fill="black"/>
</svg>
